<?xml version="1.0" encoding="UTF-8" standalone="no"?>
<svg
   xmlns:dc="http://purl.org/dc/elements/1.1/"
   xmlns:cc="http://creativecommons.org/ns#"
   xmlns:rdf="http://www.w3.org/1999/02/22-rdf-syntax-ns#"
   xmlns:svg="http://www.w3.org/2000/svg"
   xmlns="http://www.w3.org/2000/svg"
   version="1.1"
   id="Calque_1"
   x="0px"
   y="0px"
   viewBox="0 0 64 64"
   xml:space="preserve"
   width="64"
   height="64"><metadata
     id="metadata197"><rdf:RDF><cc:Work
         rdf:about=""><dc:format>image/svg+xml</dc:format><dc:type
           rdf:resource="http://purl.org/dc/dcmitype/StillImage" /><dc:title></dc:title></cc:Work></rdf:RDF></metadata><defs
     id="defs195" /><style
     type="text/css"
     id="style2">
	.st0{enable-background:new    ;}
	.st1{fill:#E2574C;}
	.st2{fill:#328E8B;}
	.st3{fill:#F9E9C7;}
	.st4{fill:#F9D780;}
	.st5{fill:#52CBCE;}
	.st6{fill:#3EADAD;}
	.st7{fill:#EE9A94;}
	.st8{fill:#687492;}
	.st9{fill:#FFA5B5;}
	.st10{fill:#FFD0A1;}
	.st11{fill:#7EE1E6;}
	.st12{fill:#C49AE9;}
</style><path
     id="path984"
     style="stroke-width:4;fill:#f6e1b1;fill-opacity:1;stroke:#ffffff;stroke-opacity:1;stroke-miterlimit:4;stroke-dasharray:none"
     d="M 31.992188 3 C 29.461901 3 27.419922 5.041978 27.419922 7.5722656 C 27.419922 9.2642052 28.628157 10.742535 30 11.535156 L 30 14.726562 C 23.933599 15.382403 18.751811 18.992621 15.923828 24.09375 C 10.925999 20.701568 2.9863281 22.115234 2.9863281 22.115234 C 2.9863281 22.115234 1.0954583 31.655963 5.8359375 36.472656 C 8.257988 38.933646 11.931502 39.67929 14.955078 39.828125 C 17.667796 46.582274 24.264454 51.349609 31.994141 51.349609 C 39.712177 51.349609 46.312995 46.582214 49.029297 39.828125 C 52.05326 39.679531 55.72779 38.934206 58.150391 36.472656 C 62.89087 31.655963 61 22.115234 61 22.115234 C 61 22.115234 53.06033 20.701568 48.0625 24.09375 C 45.236358 18.995999 40.061247 15.387788 34 14.728516 L 34 11.535156 C 35.371842 10.742535 36.566406 9.2642052 36.566406 7.5722656 C 36.566406 5.041978 34.522476 3 31.992188 3 z " /><path
     class="st3"
     d="M 36.565958,7.5728089 C 36.565958,5.0425213 34.523437,3 31.993149,3 29.462862,3 27.42034,5.0425213 27.42034,7.5728089 c 0,1.6919396 1.207817,3.1704811 2.57966,3.9631021 v 3.658247 h 4 v -3.658247 c 1.371842,-0.792621 2.565958,-2.2711625 2.565958,-3.9631021 z"
     id="path78"
     style="stroke-width:1.00001;fill:#f6e1b1;fill-opacity:1" /><path
     class="st6"
     d="m 5.8366816,36.472963 c 4.7404784,4.816692 14.3128924,3.094267 14.3128924,3.094267 0,0 1.890094,-9.541928 -2.850385,-14.35862 -4.740478,-4.816693 -14.312892,-3.094268 -14.312892,-3.094268 0,0 -1.8900946,9.541928 2.8503846,14.358621 z"
     id="path94"
     style="stroke-width:1.00001;fill:#3eadad;fill-opacity:1" /><path
     class="st2"
     d="m 58.149615,36.472963 c -4.740476,4.816692 -14.31289,3.094267 -14.31289,3.094267 0,0 -1.890095,-9.541928 2.850384,-14.35862 C 51.427588,20.391917 61,22.114342 61,22.114342 c 0,0 1.890094,9.541928 -2.850385,14.358621 z"
     id="path96"
     style="stroke-width:1.00001" /><path
     id="path98"
     style="fill:#52cbce;stroke-width:1.00001;fill-opacity:1"
     d="m 31.993521,14.6142 c -10.136394,0 -18.367271,8.217458 -18.367271,18.369093 0,10.151637 8.215634,18.36727 18.367271,18.36727 10.136392,0 18.367269,-8.215633 18.367269,-18.36727 0,-10.151635 -8.230877,-18.369093 -18.367269,-18.369093 z" /><path
     id="rect979"
     style="fill:#f8d069;fill-rule:evenodd;fill-opacity:1"
     d="M 32 3 L 32 15.193359 L 34 15.193359 L 34 11.535156 C 35.371842 10.742535 36.566406 9.2642052 36.566406 7.5722656 C 36.566406 5.0446266 34.526618 3.0042698 32 3 z " /><path
     id="path974"
     style="fill:#3eadad;stroke-width:1.00001;fill-opacity:1"
     d="M 32 14.613281 L 32 51.349609 C 42.133677 51.346412 50.361328 43.132083 50.361328 32.982422 C 50.361328 22.832762 42.133678 14.616479 32 14.613281 z " /><path
     class="st8"
     d="M 29.295192,42.387129 25.072964,39.7349 c -1.493784,-0.945048 -2.042521,-2.911356 -1.158444,-4.450868 0.929804,-1.600483 3.002811,-2.103492 4.572809,-1.127959 l 2.14922,1.3566 c 0.884076,0.56398 2.012037,0.56398 2.896113,0 l 2.14922,-1.3566 c 1.52427,-0.96029 3.536305,-0.503009 4.511838,1.021261 0.96029,1.524269 0.503009,3.536305 -1.021261,4.511837 l -4.283197,2.697958 c -1.722426,1.066988 -3.886888,1.066988 -5.59407,0 z"
     id="path102"
     style="stroke-width:1.00001;fill:#4b556a;fill-opacity:1" /><path
     class="st9"
     d="m 36.870812,41.121986 c -0.609708,-1.569998 -2.530287,-2.697958 -4.786207,-2.697958 -2.255919,0 -4.176498,1.143202 -4.786206,2.7132 l 1.996793,1.249901 c 1.707182,1.066988 3.871644,1.066988 5.563584,0 z"
     id="path104"
     style="stroke-width:1.00001;fill:#ff7f95;fill-opacity:1" /><path
     class="st8"
     d="m 44,31.999999 c -0.555556,0 -1,-0.370968 -1,-0.82258 v -1.35484 c 0,-0.451612 0.444444,-0.82258 1,-0.82258 0.555556,0 1,0.370968 1,0.82258 v 1.35484 c 0,0.451612 -0.444444,0.82258 -1,0.82258 z"
     id="path106"
     style="stroke-width:0.999996;fill:#4b556a;fill-opacity:1" /><path
     class="st8"
     d="m 20,31.999999 c -0.555556,0 -1,-0.370968 -1,-0.82258 v -1.35484 c 0,-0.451612 0.444444,-0.82258 1,-0.82258 0.555556,0 1,0.370968 1,0.82258 v 1.35484 c 0,0.451612 -0.444444,0.82258 -1,0.82258 z"
     id="path108"
     style="stroke-width:0.999996;fill:#4b556a;fill-opacity:1" /><g
     id="g889"
     transform="rotate(-10.517741,42.864461,54)"><path
       id="path870"
       style="fill:#ff6600;stroke:#ffffff;stroke-width:2;stroke-linecap:butt;stroke-linejoin:miter;stroke-miterlimit:4;stroke-dasharray:none;stroke-opacity:1"
       d="m 18,44 -6,5 6,5 v -3 h 20 v 2 h 4 v -2 c 0,-2.216 -1.784,-4 -4,-4 H 18 Z m 28,8 v 3 H 26 v -2 h -4 v 2 c 0,2.216 1.784,4 4,4 h 20 v 3 l 6,-5 z" /><path
       id="path993"
       style="fill:#ff7f95;fill-opacity:1;stroke:none;stroke-width:1px;stroke-linecap:butt;stroke-linejoin:miter;stroke-opacity:1"
       d="m 22,52 v 3 c 0,2.216 1.784,4 4,4 h 20 v 3 l 6,-5 -6,-5 v 3 H 26 v -3 z" /><path
       id="path868"
       style="fill:#f8d069;fill-opacity:1;stroke:none;stroke-width:1px;stroke-linecap:butt;stroke-linejoin:miter;stroke-opacity:1"
       d="m 42,54 v -3 c 0,-2.216 -1.784,-4 -4,-4 H 18 v -3 l -6,5 6,5 v -3 h 20 v 3 z" /></g></svg>
