<?xml version="1.0" encoding="UTF-8" standalone="no"?>
<svg
   xmlns:dc="http://purl.org/dc/elements/1.1/"
   xmlns:cc="http://creativecommons.org/ns#"
   xmlns:rdf="http://www.w3.org/1999/02/22-rdf-syntax-ns#"
   xmlns:svg="http://www.w3.org/2000/svg"
   xmlns="http://www.w3.org/2000/svg"
   version="1.1"
   id="Calque_1"
   x="0px"
   y="0px"
   viewBox="0 0 128 128"
   xml:space="preserve"
   width="128"
   height="128"><metadata
     id="metadata197"><rdf:RDF><cc:Work
         rdf:about=""><dc:format>image/svg+xml</dc:format><dc:type
           rdf:resource="http://purl.org/dc/dcmitype/StillImage" /><dc:title></dc:title></cc:Work></rdf:RDF></metadata><defs
     id="defs195" /><style
     type="text/css"
     id="style2">
	.st0{enable-background:new    ;}
	.st1{fill:#E2574C;}
	.st2{fill:#328E8B;}
	.st3{fill:#F9E9C7;}
	.st4{fill:#F9D780;}
	.st5{fill:#52CBCE;}
	.st6{fill:#3EADAD;}
	.st7{fill:#EE9A94;}
	.st8{fill:#687492;}
	.st9{fill:#FFA5B5;}
	.st10{fill:#FFD0A1;}
	.st11{fill:#7EE1E6;}
	.st12{fill:#C49AE9;}
</style><g
     id="g919"
     transform="matrix(0.23592506,0,0,0.23592506,-160.93648,-24.248626)"
     style="stroke-width:4.23863"><path
       class="st3"
       d="m 995,170.2 c 0,-16.6 -13.4,-30 -30,-30 -16.6,0 -30,13.4 -30,30 0,11.1 6,20.8 15,26 v 24 h 30 v -24 c 9,-5.2 15,-14.9 15,-26 z"
       id="path78"
       style="stroke-width:4.23863" /><path
       class="st4"
       d="m 965,140.2 v 80 h 15 v -24 c 9,-5.2 15,-14.9 15,-26 0,-16.5 -13.4,-30 -30,-30 z"
       id="path80"
       style="stroke-width:4.23863" /><path
       class="st3"
       d="m 1070.4,592.9 v -90.4 c 0,-58.2 -47.2,-105.4 -105.4,-105.4 -58.2,0 -105.4,47.2 -105.4,105.4 v 90.4 z"
       id="path82"
       style="stroke-width:4.23863" /><path
       class="st4"
       d="m 1070.4,592.9 v -90.4 c 0,-58.2 -47.2,-105.4 -105.4,-105.4 0,73.8 0,195.8 0,195.8 z"
       id="path84"
       style="stroke-width:4.23863" /><rect
       x="829.5"
       y="577.79999"
       class="st5"
       width="271.10001"
       height="45.200001"
       id="rect86"
       style="stroke-width:4.23863" /><rect
       x="965"
       y="577.79999"
       class="st6"
       width="135.5"
       height="45.200001"
       id="rect88"
       style="stroke-width:4.23863" /><rect
       x="904.79999"
       y="487.5"
       class="st7"
       width="120.5"
       height="45.200001"
       id="rect90"
       style="stroke-width:4.23863" /><rect
       x="965"
       y="487.5"
       class="st1"
       width="60.200001"
       height="45.200001"
       id="rect92"
       style="stroke-width:4.23863" /><path
       class="st6"
       d="m 793.4,359.8 c 31.1,31.6 93.9,20.3 93.9,20.3 0,0 12.4,-62.6 -18.7,-94.2 -31.1,-31.6 -93.9,-20.3 -93.9,-20.3 0,0 -12.4,62.6 18.7,94.2 z"
       id="path94"
       style="stroke-width:4.23863" /><path
       class="st2"
       d="m 1136.6,359.8 c -31.1,31.6 -93.9,20.3 -93.9,20.3 0,0 -12.4,-62.6 18.7,-94.2 31.1,-31.6 93.9,-20.3 93.9,-20.3 0,0 12.4,62.6 -18.7,94.2 z"
       id="path96"
       style="stroke-width:4.23863" /><path
       class="st5"
       d="m 1085.5,336.9 c 0,0 -53.9,120.5 -120.5,120.5 -66.6,0 -120.5,-53.9 -120.5,-120.5 0,-66.6 54,-120.5 120.5,-120.5 66.5,0 120.5,120.5 120.5,120.5 z"
       id="path98"
       style="stroke-width:4.23863" /><path
       class="st6"
       d="m 965,216.4 c 66.5,0 120.5,53.9 120.5,120.5 0,66.6 -54,120.5 -120.5,120.5"
       id="path100"
       style="stroke-width:4.23863" /><path
       class="st8"
       d="M 947.3,398.6 919.6,381.2 C 909.8,375 906.2,362.1 912,352 c 6.1,-10.5 19.7,-13.8 30,-7.4 l 14.1,8.9 c 5.8,3.7 13.2,3.7 19,0 l 14.1,-8.9 c 10,-6.3 23.2,-3.3 29.6,6.7 6.3,10 3.3,23.2 -6.7,29.6 L 984,398.6 c -11.3,7 -25.5,7 -36.7,0 z"
       id="path102"
       style="stroke-width:4.23863" /><path
       class="st9"
       d="m 997,390.3 c -4,-10.3 -16.6,-17.7 -31.4,-17.7 -14.8,0 -27.4,7.5 -31.4,17.8 l 13.1,8.2 c 11.2,7 25.4,7 36.5,0 z"
       id="path104"
       style="stroke-width:4.23863" /><g
       id="g110"
       style="stroke-width:4.23863"><path
         class="st8"
         d="m 1042.8,334.9 c -4,0 -7.2,-2.3 -7.2,-5.1 v -8.4 c 0,-2.8 3.2,-5.1 7.2,-5.1 4,0 7.2,2.3 7.2,5.1 v 8.4 c 0,2.8 -3.2,5.1 -7.2,5.1 z"
         id="path106"
         style="stroke-width:4.23863" /><path
         class="st8"
         d="m 888.8,334.9 c -4,0 -7.2,-2.3 -7.2,-5.1 v -8.4 c 0,-2.8 3.2,-5.1 7.2,-5.1 4,0 7.2,2.3 7.2,5.1 v 8.4 c 0,2.8 -3.2,5.1 -7.2,5.1 z"
         id="path108"
         style="stroke-width:4.23863" /></g><path
       class="st8"
       d="m 1136.1,442.7 c -2.6,0 -4.3,-1.7 -4.3,-4.3 V 425.6 H 1119 c -2.6,0 -4.3,-1.7 -4.3,-4.3 0,-2.6 1.7,-4.3 4.3,-4.3 h 12.8 v -12.8 c 0,-2.6 1.7,-4.3 4.3,-4.3 2.6,0 4.3,1.7 4.3,4.3 V 417 h 12.8 c 2.6,0 4.3,1.7 4.3,4.3 0,2.6 -1.7,4.3 -4.3,4.3 h -12.8 v 12.8 c 0,2.6 -1.7,4.3 -4.3,4.3 z"
       id="path112"
       style="stroke-width:4.23863" /><path
       class="st8"
       d="m 777.7,417.1 c -2.6,0 -4.3,-1.7 -4.3,-4.3 v -4.3 h -4.3 c -2.6,0 -4.3,-1.7 -4.3,-4.3 0,-2.6 1.7,-4.3 4.3,-4.3 h 4.3 v -4.3 c 0,-2.6 1.7,-4.3 4.3,-4.3 2.6,0 4.3,1.7 4.3,4.3 v 4.3 h 4.3 c 2.6,0 4.3,1.7 4.3,4.3 0,2.6 -1.7,4.3 -4.3,4.3 H 782 v 4.3 c 0,2.6 -1.7,4.3 -4.3,4.3 z"
       id="path114"
       style="stroke-width:4.23863" /><path
       class="st8"
       d="m 711.2,332.9 c -1.5,0 -2.5,-1 -2.5,-2.5 v -7.6 h -7.6 c -1.5,0 -2.5,-1 -2.5,-2.5 0,-1.5 1,-2.5 2.5,-2.5 h 7.6 v -7.6 c 0,-1.5 1,-2.5 2.5,-2.5 1.5,0 2.5,1 2.5,2.5 v 7.6 h 7.6 c 1.5,0 2.5,1 2.5,2.5 0,1.5 -1,2.5 -2.5,2.5 h -7.6 v 7.6 c 0.1,1.5 -0.9,2.5 -2.5,2.5 z"
       id="path116"
       style="stroke-width:4.23863" /><path
       class="st8"
       d="m 1178.8,246.5 c -2.6,0 -4.3,-1.7 -4.3,-4.3 v -4.3 h -4.3 c -2.6,0 -4.3,-1.7 -4.3,-4.3 0,-2.6 1.7,-4.3 4.3,-4.3 h 4.3 V 225 c 0,-2.6 1.7,-4.3 4.3,-4.3 2.6,0 4.3,1.7 4.3,4.3 v 4.3 h 4.3 c 2.6,0 4.3,1.7 4.3,4.3 0,2.6 -1.7,4.3 -4.3,4.3 h -4.3 v 4.3 c 0,2.6 -1.7,4.3 -4.3,4.3 z"
       id="path118"
       style="stroke-width:4.23863" /><path
       class="st8"
       d="m 873.8,152.9 c -2.6,0 -4.3,-1.7 -4.3,-4.3 v -4.3 h -4.3 c -2.6,0 -4.3,-1.7 -4.3,-4.3 0,-2.6 1.7,-4.3 4.3,-4.3 h 4.3 v -4.3 c 0,-2.6 1.7,-4.3 4.3,-4.3 2.6,0 4.3,1.7 4.3,4.3 v 4.3 h 4.3 c 2.6,0 4.3,1.7 4.3,4.3 0,2.6 -1.7,4.3 -4.3,4.3 h -4.3 v 4.3 c 0,2.6 -1.7,4.3 -4.3,4.3 z"
       id="path120"
       style="stroke-width:4.23863" /><circle
       class="st10"
       cx="752.09998"
       cy="189.3"
       r="8.5"
       id="circle122"
       style="stroke-width:4.23863" /><ellipse
       class="st11"
       cx="1085.1"
       cy="180.7"
       rx="7.9000001"
       ry="7.6999998"
       id="ellipse124"
       style="stroke-width:4.23863" /><ellipse
       class="st11"
       cx="840.5"
       cy="208.2"
       rx="7.9000001"
       ry="7.6999998"
       id="ellipse126"
       style="stroke-width:4.23863" /><circle
       class="st12"
       cx="1208.2"
       cy="331.39999"
       r="8.5"
       id="circle128"
       style="stroke-width:4.23863" /></g></svg>
